# xmcd CD database file
#
# Track frame offsets:
#	150
#	7240
#	26927
#	48258
#	66465
#	89944
#	114240
#	136511
#	157479
#	179465
#	204840
#	229245
#	252096
#	273300
#
# Disc length: 4016 seconds
#
# Revision: 9
# Processed by: cddbd v1.5.2PL0 Copyright (c) Steve Scherf et al.
# Submitted via: CDex 1.70beta3
#
DISCID=cc0fae0e
DTITLE=Kalafina - Seventh Heaven
DYEAR=2009
DGENRE=J-song
TTITLE0=overture
TTITLE1=oblivious
TTITLE2=love come down
TTITLE3=夏の林檎
TTITLE4=fairytale
TTITLE5=ARIA
TTITLE6=また風が強くなった
TTITLE7=傷跡
TTITLE8=serenato
TTITLE9=音楽
TTITLE10=明日の景色
TTITLE11=sprinter
TTITLE12=君が光に変えて行く
TTITLE13=seventh heaven
EXTD=YEAR: 2009
EXTT0=
EXTT1=
EXTT2=
EXTT3=
EXTT4=
EXTT5=
EXTT6=
EXTT7=
EXTT8=
EXTT9=
EXTT10=
EXTT11=
EXTT12=
EXTT13=
PLAYORDER=
